<svg width="16" height="48" fill="#FFFFFF" xmlns="http://www.w3.org/2000/svg" viewBox="0 0 2048 2048">
<path d="M640 1792v-128h256v128H640zm1280-726v982h-128v-982q0-38-14-73t-42-63l-328-327v394l109 110-90 90-370-369q-28-28-67-28-19 0-36 7t-30 21-20 30-8 36q0 39 28 67l164 165v154q0 66 25 124t68 102 102 69 125 25v320q0 27-10 50t-27 40-41 28-50 10H256q-27 0-50-10t-40-27-28-41-10-50V128q0-27 10-50t27-40 41-28 50-10h1024q27 0 50 10t40 27 28 41 10 50v293l418 419q46 46 70 103t24 123zm-640-197V128H256v1792h1024v-211q-71-20-130-62t-101-99-65-125-24-143v-102l-127-126q-32-32-48-72t-17-86q0-46 17-86t48-71 70-47 87-18q45 0 85 16t73 49l132 132z" />
</svg>
